<svg width="74" height="58" viewBox="0 0 74 58" fill="none" xmlns="http://www.w3.org/2000/svg">
<path d="M0 6.03717H19.4052L31.2639 26.9517L45.0632 0.862457H41.3978L42.0446 0H64.2528L63.6059 0.862457H55.197L36.4387 36.0074L37.948 38.3792L55.4127 6.03717H73.7398V7.76209H66.6245V47.6506H73.7398V49.5911H48.513V47.6506H55.4127V10.3494L34.2825 50.0223H32.5576L9.05576 9.27137V47.6506H16.3866V49.5911H0V47.6506H6.89963V7.76209H0V6.03717Z" fill="black"/>
<path d="M24.3644 40.1035L29.3235 49.1593L25.4425 56.7057H36.2232C36.2232 56.7057 45.0633 56.7058 50.4536 51.7466H51.7473L47.4351 57.9994H6.46851V57.137H15.5243L24.3644 40.1035Z" fill="black"/>
</svg>
