<svg width="10" height="11" viewBox="0 0 10 11" fill="none" xmlns="http://www.w3.org/2000/svg">
<path fill-rule="evenodd" clip-rule="evenodd" d="M8.06714 7.11069H7.555L7.37714 6.93426C8.00643 6.19997 8.38857 5.24783 8.38857 4.20569C8.38857 1.88712 6.51071 0.00854492 4.19429 0.00854492C1.87786 0.00854492 0 1.88712 0 4.20569C0 6.52354 1.87786 8.40212 4.19429 8.40212C5.23643 8.40212 6.18714 8.01997 6.92071 7.39069L7.09857 7.56783V8.07997L9.03357 10.0093L9.99571 9.0464L8.06714 7.11069ZM4.19429 7.11069C2.59071 7.11069 1.29 5.80997 1.29 4.20569C1.29 2.60069 2.59071 1.29926 4.19429 1.29926C5.79786 1.29926 7.09786 2.60069 7.09786 4.20569C7.09786 5.80997 5.79786 7.11069 4.19429 7.11069Z" fill="#A7A5A6"/>
</svg>
